ffmpeg started on 2016-12-07 at 17:41:17
Report written to "Output/x264/results/ffmpeg/sintelslow15000k.log"
Command line:
Tools/ffmpeg/ffmpeg -benchmark -y -i Input/y4m/sintel.y4m -c:v libx264 -preset slow -b:v 15000k -an Output/x264/encoded/sintelslow15000k.mkv
ffmpeg version N-82227-gdb23fde Copyright (c) 2000-2016 the FFmpeg developers
  built with gcc 5.4.0 (Ubuntu 5.4.0-6ubuntu1~16.04.2) 20160609
  configuration: --prefix=/home/jaroslav/ffmpeg_build --pkg-config-flags=--static --extra-cflags=-I/home/jaroslav/ffmpeg_build/include --extra-ldflags=-L/home/jaroslav/ffmpeg_build/lib --bindir=/home/jaroslav/bin --enable-gpl --enable-libass --enable-libfdk-aac --enable-libfreetype --enable-libmp3lame --enable-libopus --enable-libtheora --enable-libvorbis --enable-libvpx --enable-libx264 --enable-libx265 --enable-nvenc --enable-libmfx --enable-libxvid --enable-libgsm --enable-libopencore-amrnb --enable-version3 --enable-nonfree
  libavutil      55. 35.100 / 55. 35.100
  libavcodec     57. 66.101 / 57. 66.101
  libavformat    57. 57.100 / 57. 57.100
  libavdevice    57.  2.100 / 57.  2.100
  libavfilter     6. 66.100 /  6. 66.100
  libswscale      4.  3.100 /  4.  3.100
  libswresample   2.  4.100 /  2.  4.100
  libpostproc    54.  2.100 / 54.  2.100
Input #0, yuv4mpegpipe, from 'Input/y4m/sintel.y4m':
  Duration: 00:00:20.83, start: 0.000000, bitrate: 2057307 kb/s
    Stream #0:0: Video: rawvideo (I420 / 0x30323449), yuv420p(progressive), 4096x1744, SAR 1:1 DAR 256:109, 24 fps, 24 tbr, 24 tbn, 24 tbc
[libx264 @ 0x273c1c0] using SAR=1/1
[libx264 @ 0x273c1c0] using cpu capabilities: MMX2 SSE2Fast SSSE3 SSE4.2 AVX FMA3 AVX2 LZCNT BMI2
[libx264 @ 0x273c1c0] profile High, level 5.1
[libx264 @ 0x273c1c0] 264 - core 148 - H.264/MPEG-4 AVC codec - Copyleft 2003-2016 - http://www.videolan.org/x264.html - options: cabac=1 ref=5 deblock=1:0:0 analyse=0x3:0x113 me=hex subme=8 psy=1 psy_rd=1.00:0.00 mixed_ref=1 me_range=16 chroma_me=1 trellis=2 8x8dct=1 cqm=0 deadzone=21,11 fast_pskip=1 chroma_qp_offset=-2 threads=6 lookahead_threads=1 sliced_threads=0 nr=0 decimate=1 interlaced=0 bluray_compat=0 constrained_intra=0 bframes=3 b_pyramid=2 b_adapt=1 b_bias=0 direct=3 weightb=1 open_gop=0 weightp=2 keyint=250 keyint_min=24 scenecut=40 intra_refresh=0 rc_lookahead=50 rc=abr mbtree=1 bitrate=15000 ratetol=1.0 qcomp=0.60 qpmin=0 qpmax=69 qpstep=4 ip_ratio=1.40 aq=1:1.00
Output #0, matroska, to 'Output/x264/encoded/sintelslow15000k.mkv':
  Metadata:
    encoder         : Lavf57.57.100
    Stream #0:0: Video: h264 (libx264) (H264 / 0x34363248), yuv420p, 4096x1744 [SAR 1:1 DAR 256:109], q=-1--1, 15000 kb/s, 24 fps, 1k tbn, 24 tbc
    Metadata:
      encoder         : Lavc57.66.101 libx264
    Side data:
      cpb: bitrate max/min/avg: 0/0/15000000 buffer size: 0 vbv_delay: -1
Stream mapping:
  Stream #0:0 -> #0:0 (rawvideo (native) -> h264 (libx264))
Press [q] to stop, [?] for help
frame=   10 fps=0.0 q=0.0 size=       0kB time=00:00:00.00 bitrate=N/A speed=   0x    frame=   19 fps= 18 q=0.0 size=       0kB time=00:00:00.00 bitrate=N/A speed=   0x    frame=   28 fps= 17 q=0.0 size=       0kB time=00:00:00.00 bitrate=N/A speed=   0x    frame=   37 fps= 17 q=0.0 size=       0kB time=00:00:00.00 bitrate=N/A speed=   0x    frame=   46 fps= 17 q=0.0 size=       0kB time=00:00:00.00 bitrate=N/A speed=   0x    frame=   55 fps= 17 q=0.0 size=       0kB time=00:00:00.00 bitrate=N/A speed=   0x    frame=   57 fps=9.3 q=0.0 size=       0kB time=00:00:00.00 bitrate=N/A speed=   0x    frame=   58 fps=6.3 q=0.0 size=       0kB time=00:00:00.00 bitrate=N/A speed=   0x    frame=   59 fps=5.7 q=0.0 size=       0kB time=00:00:00.00 bitrate=N/A speed=   0x    frame=   64 fps=5.3 q=30.0 size=       1kB time=00:00:00.04 bitrate= 136.6kbits/s speed=0.00355x    frame=   67 fps=5.3 q=38.0 size=       1kB time=00:00:00.16 bitrate=  35.0kbits/s speed=0.0132x    frame=   69 fps=5.2 q=39.0 size=       1kB time=00:00:00.25 bitrate=  23.4kbits/s speed=0.0189x    frame=   70 fps=5.1 q=39.0 size=       1kB time=00:00:00.29 bitrate=  20.0kbits/s speed=0.0212x    frame=   74 fps=5.1 q=39.0 size=       1kB time=00:00:00.45 bitrate=  12.8kbits/s speed=0.0317x    frame=   76 fps=5.0 q=39.0 size=       1kB time=00:00:00.54 bitrate=  10.8kbits/s speed=0.0357x    frame=   81 fps=5.1 q=38.0 size=       1kB time=00:00:00.75 bitrate=   7.8kbits/s speed=0.0476x    frame=   82 fps=5.0 q=38.0 size=       1kB time=00:00:00.79 bitrate=   7.4kbits/s speed=0.0485x    frame=   85 fps=5.0 q=37.0 size=       1kB time=00:00:00.91 bitrate=   6.4kbits/s speed=0.0538x    frame=   89 fps=5.0 q=37.0 size=       1kB time=00:00:01.08 bitrate=   5.4kbits/s speed=0.0613x    frame=   92 fps=5.0 q=36.0 size=       1kB time=00:00:01.20 bitrate=   4.9kbits/s speed=0.0653x    frame=   95 fps=5.0 q=36.0 size=       1kB time=00:00:01.33 bitrate=   4.4kbits/s speed=0.0696x    frame=   97 fps=4.9 q=36.0 size=       1kB time=00:00:01.41 bitrate=   4.1kbits/s speed=0.072x    frame=  100 fps=4.9 q=36.0 size=       1kB time=00:00:01.54 bitrate=   3.8kbits/s speed=0.0758x    frame=  103 fps=4.9 q=35.0 size=       1kB time=00:00:01.66 bitrate=   3.5kbits/s speed=0.079x    frame=  107 fps=4.9 q=35.0 size=    5154kB time=00:00:01.83 bitrate=23022.4kbits/s speed=0.0842x    frame=  109 fps=4.9 q=35.0 size=    5154kB time=00:00:01.91 bitrate=22014.1kbits/s speed=0.0855x    frame=  112 fps=4.9 q=35.0 size=    5154kB time=00:00:02.04 bitrate=20667.2kbits/s speed=0.089x    frame=  114 fps=4.8 q=34.0 size=    5154kB time=00:00:02.12 bitrate=19860.3kbits/s speed=0.0899x    frame=  116 fps=4.8 q=34.0 size=    5154kB time=00:00:02.20 bitrate=19114.1kbits/s speed=0.0907x    frame=  119 fps=4.7 q=34.0 size=    5154kB time=00:00:02.33 bitrate=18090.4kbits/s speed=0.0931x    frame=  121 fps=4.7 q=34.0 size=    5154kB time=00:00:02.41 bitrate=17462.0kbits/s speed=0.0943x    frame=  124 fps=4.7 q=34.0 size=    5154kB time=00:00:02.54 bitrate=16603.7kbits/s speed=0.0958x    frame=  126 fps=4.6 q=34.0 size=    5154kB time=00:00:02.62 bitrate=16078.9kbits/s speed=0.0967x    frame=  130 fps=4.6 q=34.0 size=    5154kB time=00:00:02.79 bitrate=15117.5kbits/s speed=0.0997x    frame=  133 fps=4.6 q=34.0 size=    5154kB time=00:00:02.91 bitrate=14469.9kbits/s speed=0.101x    frame=  136 fps=4.6 q=33.0 size=    5154kB time=00:00:03.04 bitrate=13875.5kbits/s speed=0.103x    frame=  138 fps=4.6 q=33.0 size=    5154kB time=00:00:03.12 bitrate=13507.1kbits/s speed=0.104x    frame=  141 fps=4.6 q=33.0 size=    5154kB time=00:00:03.25 bitrate=12987.7kbits/s speed=0.105x    frame=  143 fps=4.5 q=33.0 size=    5154kB time=00:00:03.33 bitrate=12664.4kbits/s speed=0.106x    frame=  146 fps=4.5 q=33.0 size=    5154kB time=00:00:03.45 bitrate=12206.7kbits/s speed=0.107x    frame=  148 fps=4.5 q=33.0 size=    5154kB time=00:00:03.54 bitrate=11917.3kbits/s speed=0.108x    frame=  151 fps=4.5 q=33.0 size=    5154kB time=00:00:03.66 bitrate=11511.2kbits/s speed=0.11x    frame=  153 fps=4.5 q=33.0 size=    5154kB time=00:00:03.75 bitrate=11256.5kbits/s speed=0.11x    frame=  156 fps=4.5 q=32.0 size=    5154kB time=00:00:03.87 bitrate=10893.5kbits/s speed=0.111x    frame=  161 fps=4.5 q=32.0 size=    7864kB time=00:00:04.08 bitrate=15774.2kbits/s speed=0.115x    frame=  163 fps=4.5 q=32.0 size=    7864kB time=00:00:04.16 bitrate=15456.3kbits/s speed=0.114x    frame=  169 fps=4.6 q=32.0 size=    7864kB time=00:00:04.41 bitrate=14581.7kbits/s speed=0.119x    frame=  171 fps=4.5 q=30.0 size=    7864kB time=00:00:04.50 bitrate=14312.8kbits/s speed=0.118x    frame=  175 fps=4.5 q=32.0 size=    7864kB time=00:00:04.66 bitrate=13800.8kbits/s speed=0.121x    frame=  178 fps=4.5 q=32.0 size=    7864kB time=00:00:04.79 bitrate=13440.8kbits/s speed=0.122x    frame=  181 fps=4.5 q=32.0 size=    7864kB time=00:00:04.91 bitrate=13099.2kbits/s speed=0.122x    frame=  185 fps=4.5 q=32.0 size=    7864kB time=00:00:05.08 bitrate=12671.5kbits/s speed=0.124x    frame=  187 fps=4.5 q=32.0 size=    7864kB time=00:00:05.16 bitrate=12465.5kbits/s speed=0.125x    frame=  189 fps=4.5 q=31.0 size=    7864kB time=00:00:05.25 bitrate=12268.5kbits/s speed=0.124x    frame=  192 fps=4.5 q=31.0 size=    7864kB time=00:00:05.37 bitrate=11983.2kbits/s speed=0.125x    frame=  195 fps=4.5 q=31.0 size=    7864kB time=00:00:05.50 bitrate=11710.9kbits/s speed=0.126x    frame=  197 fps=4.5 q=31.0 size=    7864kB time=00:00:05.58 bitrate=11536.9kbits/s speed=0.126x    frame=  199 fps=4.5 q=31.0 size=    7864kB time=00:00:05.66 bitrate=11365.9kbits/s speed=0.127x    frame=  203 fps=4.5 q=31.0 size=    7864kB time=00:00:05.83 bitrate=11042.5kbits/s speed=0.128x    frame=  204 fps=4.4 q=31.0 size=    7864kB time=00:00:05.87 bitrate=10963.6kbits/s speed=0.128x    frame=  207 fps=4.4 q=31.0 size=    7864kB time=00:00:06.00 bitrate=10735.2kbits/s speed=0.129x    frame=  210 fps=4.4 q=31.0 size=    7864kB time=00:00:06.12 bitrate=10516.1kbits/s speed=0.13x    frame=  212 fps=4.4 q=29.0 size=    7864kB time=00:00:06.20 bitrate=10375.6kbits/s speed=0.13x    frame=  218 fps=4.5 q=31.0 size=   11639kB time=00:00:06.45 bitrate=14761.5kbits/s speed=0.134x    frame=  221 fps=4.5 q=31.0 size=   11639kB time=00:00:06.58 bitrate=14481.3kbits/s speed=0.135x    frame=  222 fps=4.5 q=31.0 size=   11639kB time=00:00:06.62 bitrate=14389.5kbits/s speed=0.134x    frame=  224 fps=4.5 q=31.0 size=   11639kB time=00:00:06.70 bitrate=14211.5kbits/s speed=0.134x    frame=  227 fps=4.5 q=31.0 size=   11639kB time=00:00:06.83 bitrate=13951.5kbits/s speed=0.135x    frame=  230 fps=4.5 q=31.0 size=   11639kB time=00:00:06.95 bitrate=13700.9kbits/s speed=0.136x    frame=  231 fps=4.5 q=31.0 size=   11639kB time=00:00:07.00 bitrate=13618.7kbits/s speed=0.136x    frame=  234 fps=4.5 q=30.0 size=   11639kB time=00:00:07.12 bitrate=13379.8kbits/s speed=0.136x    frame=  237 fps=4.4 q=30.0 size=   11639kB time=00:00:07.25 bitrate=13149.2kbits/s speed=0.136x    frame=  240 fps=4.5 q=30.0 size=   11639kB time=00:00:07.37 bitrate=12926.4kbits/s speed=0.137x    frame=  243 fps=4.4 q=30.0 size=   11639kB time=00:00:07.50 bitrate=12710.9kbits/s speed=0.137x    frame=  248 fps=4.5 q=30.0 size=   13316kB time=00:00:07.70 bitrate=14150.1kbits/s speed=0.14x    frame=  250 fps=4.5 q=30.0 size=   13316kB time=00:00:07.79 bitrate=13997.5kbits/s speed=0.14x    frame=  253 fps=4.5 q=30.0 size=   13316kB time=00:00:07.91 bitrate=13776.6kbits/s speed=0.141x    frame=  256 fps=4.5 q=30.0 size=   13316kB time=00:00:08.04 bitrate=13562.5kbits/s speed=0.141x    frame=  259 fps=4.5 q=30.0 size=   13316kB time=00:00:08.16 bitrate=13354.9kbits/s speed=0.142x    frame=  261 fps=4.5 q=30.0 size=   13316kB time=00:00:08.25 bitrate=13220.6kbits/s speed=0.142x    frame=  263 fps=4.5 q=30.0 size=   13316kB time=00:00:08.33 bitrate=13088.9kbits/s speed=0.142x    frame=  266 fps=4.5 q=30.0 size=   13316kB time=00:00:08.45 bitrate=12895.5kbits/s speed=0.143x    frame=  269 fps=4.5 q=30.0 size=   13316kB time=00:00:08.58 bitrate=12707.7kbits/s speed=0.142x    frame=  274 fps=4.5 q=30.0 size=   13316kB time=00:00:08.79 bitrate=12405.6kbits/s speed=0.143x    frame=  278 fps=4.5 q=30.0 size=   13316kB time=00:00:08.95 bitrate=12175.8kbits/s speed=0.144x    frame=  281 fps=4.5 q=30.0 size=   13316kB time=00:00:09.08 bitrate=12008.2kbits/s speed=0.144x    frame=  285 fps=4.5 q=30.0 size=   13316kB time=00:00:09.25 bitrate=11791.5kbits/s speed=0.146x    frame=  289 fps=4.5 q=30.0 size=   13316kB time=00:00:09.41 bitrate=11582.4kbits/s speed=0.146x    frame=  294 fps=4.5 q=30.0 size=   13316kB time=00:00:09.62 bitrate=11332.1kbits/s speed=0.147x    frame=  300 fps=4.5 q=29.0 size=   13316kB time=00:00:09.87 bitrate=11045.2kbits/s speed=0.149x    frame=  302 fps=4.5 q=29.0 size=   13316kB time=00:00:09.95 bitrate=10953.2kbits/s speed=0.149x    frame=  307 fps=4.5 q=29.0 size=   13316kB time=00:00:10.16 bitrate=10728.0kbits/s speed=0.15x    frame=  310 fps=4.5 q=29.0 size=   13316kB time=00:00:10.29 bitrate=10597.8kbits/s speed=0.15x    frame=  312 fps=4.5 q=29.0 size=   13316kB time=00:00:10.37 bitrate=10513.0kbits/s speed=0.15x    frame=  316 fps=4.5 q=29.0 size=   13316kB time=00:00:10.54 bitrate=10346.5kbits/s speed=0.152x    frame=  318 fps=4.5 q=29.0 size=   13316kB time=00:00:10.62 bitrate=10265.7kbits/s speed=0.152x    frame=  322 fps=4.5 q=29.0 size=   13316kB time=00:00:10.79 bitrate=10106.8kbits/s speed=0.152x    frame=  327 fps=4.6 q=29.0 size=   18430kB time=00:00:11.00 bitrate=13724.4kbits/s speed=0.153x    frame=  332 fps=4.6 q=29.0 size=   18430kB time=00:00:11.20 bitrate=13469.8kbits/s speed=0.155x    frame=  336 fps=4.6 q=29.0 size=   18430kB time=00:00:11.37 bitrate=13272.0kbits/s speed=0.156x    frame=  340 fps=4.6 q=29.0 size=   18430kB time=00:00:11.54 bitrate=13080.0kbits/s speed=0.157x    frame=  344 fps=4.6 q=28.0 size=   18430kB time=00:00:11.70 bitrate=12894.6kbits/s speed=0.157x    frame=  348 fps=4.6 q=28.0 size=   18430kB time=00:00:11.87 bitrate=12713.2kbits/s speed=0.158x    frame=  352 fps=4.6 q=28.0 size=   18430kB time=00:00:12.04 bitrate=12536.9kbits/s speed=0.159x    frame=  357 fps=4.7 q=28.0 size=   18430kB time=00:00:12.25 bitrate=12324.1kbits/s speed=0.16x    frame=  360 fps=4.7 q=28.0 size=   18430kB time=00:00:12.37 bitrate=12199.6kbits/s speed=0.161x    frame=  366 fps=4.7 q=28.0 size=   18430kB time=00:00:12.62 bitrate=11958.1kbits/s speed=0.163x    frame=  368 fps=4.7 q=28.0 size=   18430kB time=00:00:12.70 bitrate=11880.0kbits/s speed=0.163x    frame=  372 fps=4.7 q=28.0 size=   18430kB time=00:00:12.87 bitrate=11725.9kbits/s speed=0.164x    frame=  376 fps=4.8 q=28.0 size=   18430kB time=00:00:13.04 bitrate=11575.7kbits/s speed=0.165x    frame=  381 fps=4.8 q=27.0 size=   18430kB time=00:00:13.25 bitrate=11394.0kbits/s speed=0.166x    frame=  384 fps=4.8 q=27.0 size=   18430kB time=00:00:13.37 bitrate=11287.6kbits/s speed=0.167x    frame=  391 fps=4.8 q=27.0 size=   18430kB time=00:00:13.66 bitrate=11046.4kbits/s speed=0.169x    frame=  392 fps=4.8 q=27.0 size=   18430kB time=00:00:13.70 bitrate=11013.4kbits/s speed=0.168x    frame=  397 fps=4.8 q=27.0 size=   18430kB time=00:00:13.91 bitrate=10848.0kbits/s speed=0.17x    frame=  400 fps=4.8 q=27.0 size=   18430kB time=00:00:14.04 bitrate=10751.4kbits/s speed=0.17x    frame=  404 fps=4.9 q=27.0 size=   18430kB time=00:00:14.20 bitrate=10625.8kbits/s speed=0.171x    frame=  408 fps=4.9 q=26.0 size=   18430kB time=00:00:14.37 bitrate=10502.4kbits/s speed=0.172x    frame=  413 fps=4.9 q=26.0 size=   18430kB time=00:00:14.58 bitrate=10352.6kbits/s speed=0.173x    frame=  416 fps=4.9 q=26.0 size=   18430kB time=00:00:14.70 bitrate=10264.6kbits/s speed=0.174x    frame=  422 fps=4.9 q=26.0 size=   18430kB time=00:00:14.95 bitrate=10093.1kbits/s speed=0.175x    frame=  427 fps=5.0 q=26.0 size=   23342kB time=00:00:15.16 bitrate=12606.9kbits/s speed=0.176x    frame=  428 fps=4.9 q=26.0 size=   23342kB time=00:00:15.20 bitrate=12572.9kbits/s speed=0.176x    frame=  432 fps=5.0 q=26.0 size=   23342kB time=00:00:15.37 bitrate=12436.3kbits/s speed=0.176x    frame=  436 fps=4.9 q=26.0 size=   23342kB time=00:00:15.54 bitrate=12302.7kbits/s speed=0.176x    frame=  440 fps=5.0 q=26.0 size=   23342kB time=00:00:15.70 bitrate=12172.7kbits/s speed=0.177x    frame=  444 fps=5.0 q=26.0 size=   23342kB time=00:00:15.87 bitrate=12044.6kbits/s speed=0.178x    frame=  448 fps=5.0 q=25.0 size=   23342kB time=00:00:16.04 bitrate=11919.3kbits/s speed=0.178x    frame=  452 fps=5.0 q=25.0 size=   23342kB time=00:00:16.20 bitrate=11797.2kbits/s speed=0.178x    frame=  456 fps=5.0 q=26.0 size=   23342kB time=00:00:16.37 bitrate=11676.9kbits/s speed=0.179x    frame=  459 fps=5.0 q=26.0 size=   23342kB time=00:00:16.50 bitrate=11588.4kbits/s speed=0.179x    frame=  461 fps=4.9 q=26.0 size=   23342kB time=00:00:16.58 bitrate=11530.4kbits/s speed=0.178x    frame=  467 fps=4.9 q=26.0 size=   23342kB time=00:00:16.83 bitrate=11359.2kbits/s speed=0.178x    frame=  474 fps=5.0 q=23.0 size=   23342kB time=00:00:17.12 bitrate=11165.5kbits/s speed=0.179x    frame=  475 fps=4.9 q=26.0 size=   23342kB time=00:00:17.16 bitrate=11138.2kbits/s speed=0.179x    frame=  481 fps=5.0 q=26.0 size=   27653kB time=00:00:17.41 bitrate=13005.5kbits/s speed=0.18x    frame=  484 fps=5.0 q=26.0 size=   27653kB time=00:00:17.54 bitrate=12912.9kbits/s speed=0.18x    frame=  488 fps=5.0 q=26.0 size=   27653kB time=00:00:17.70 bitrate=12791.8kbits/s speed=0.18x    frame=  492 fps=5.0 q=26.0 size=   27653kB time=00:00:17.87 bitrate=12672.3kbits/s speed=0.181x    frame=  496 fps=5.0 q=26.0 size=   27653kB time=00:00:18.04 bitrate=12555.0kbits/s speed=0.181x    frame=  500 fps=5.0 q=26.0 size=   27653kB time=00:00:18.20 bitrate=12440.6kbits/s speed=0.182x    frame=  500 fps=4.6 q=-1.0 Lsize=   34259kB time=00:00:20.70 bitrate=13552.1kbits/s speed=0.19x    
video:34254kB audio:0kB subtitle:0kB other streams:0kB global headers:0kB muxing overhead: 0.014440%
bench: utime=382.256s
bench: maxrss=1823492kB
[libx264 @ 0x273c1c0] frame I:8     Avg QP:20.67  size:243102
[libx264 @ 0x273c1c0] frame P:269   Avg QP:25.88  size: 84797
[libx264 @ 0x273c1c0] frame B:223   Avg QP:24.18  size: 46280
[libx264 @ 0x273c1c0] consecutive B-frames: 37.0%  8.4%  6.6% 48.0%
[libx264 @ 0x273c1c0] mb I  I16..4: 21.5% 72.9%  5.6%
[libx264 @ 0x273c1c0] mb P  I16..4: 20.0% 19.3%  0.5%  P16..4: 33.3%  5.4%  2.1%  0.0%  0.0%    skip:19.4%
[libx264 @ 0x273c1c0] mb B  I16..4:  1.3%  2.7%  0.2%  B16..8: 35.8%  4.1%  0.7%  direct: 2.5%  skip:52.6%  L0:43.2% L1:51.5% BI: 5.4%
[libx264 @ 0x273c1c0] final ratefactor: 22.90
[libx264 @ 0x273c1c0] 8x8 transform intra:51.2% inter:85.9%
[libx264 @ 0x273c1c0] direct mvs  spatial:98.7% temporal:1.3%
[libx264 @ 0x273c1c0] coded y,uvDC,uvAC intra: 22.6% 33.3% 4.7% inter: 10.5% 12.8% 0.3%
[libx264 @ 0x273c1c0] i16 v,h,dc,p: 23% 26%  9% 43%
[libx264 @ 0x273c1c0] i8 v,h,dc,ddl,ddr,vr,hd,vl,hu: 14% 12% 18%  7% 10%  9% 11%  8% 10%
[libx264 @ 0x273c1c0] i4 v,h,dc,ddl,ddr,vr,hd,vl,hu: 14% 14%  9%  7% 15% 11% 15%  6%  9%
[libx264 @ 0x273c1c0] i8c dc,h,v,p: 58% 24% 13%  6%
[libx264 @ 0x273c1c0] Weighted P-Frames: Y:1.1% UV:0.7%
[libx264 @ 0x273c1c0] ref P L0: 66.7% 18.4%  8.7%  3.4%  2.3%  0.6%
[libx264 @ 0x273c1c0] ref B L0: 89.6%  7.4%  2.4%  0.6%
[libx264 @ 0x273c1c0] ref B L1: 97.4%  2.6%
[libx264 @ 0x273c1c0] kb/s:13469.05
